<svg xmlns="http://www.w3.org/2000/svg" width="33.504" height="30.58" viewBox="0 0 33.504 30.58">
  <g id="그룹_3724" data-name="그룹 3724" transform="translate(-938.324 -4910)">
    <g id="그룹_3723" data-name="그룹 3723" transform="translate(735.334 4504.688)">
      <path id="패스_3056" data-name="패스 3056" d="M209.875,426.9a6.888,6.888,0,0,0,6.208-3.91H203.666A6.891,6.891,0,0,0,209.875,426.9Z" fill="#fff" stroke="#fff" stroke-linejoin="bevel" stroke-width="1.5"/>
      <path id="패스_3057" data-name="패스 3057" d="M214.623,422.991h-9.5l4.748-12.874Z" fill="none" stroke="#fff" stroke-linejoin="bevel" stroke-width="1.5"/>
      <path id="패스_3058" data-name="패스 3058" d="M229.61,426.9a6.891,6.891,0,0,0,6.209-3.91H223.4A6.891,6.891,0,0,0,229.61,426.9Z" fill="#fff" stroke="#fff" stroke-linejoin="bevel" stroke-width="1.5"/>
      <path id="패스_3059" data-name="패스 3059" d="M234.358,422.991h-9.5l4.748-12.874Z" fill="none" stroke="#fff" stroke-linejoin="bevel" stroke-width="1.5"/>
      <line id="선_103" data-name="선 103" y2="29.829" transform="translate(219.742 405.313)" fill="none" stroke="#fff" stroke-linejoin="bevel" stroke-width="1.5"/>
      <line id="선_104" data-name="선 104" x2="30.392" transform="translate(204.547 410.117)" fill="none" stroke="#fff" stroke-linejoin="bevel" stroke-width="1.5"/>
      <line id="선_105" data-name="선 105" x2="14.685" transform="translate(212.4 435.142)" fill="none" stroke="#fff" stroke-linejoin="bevel" stroke-width="1.5"/>
      <circle id="타원_511" data-name="타원 511" cx="2.315" cy="2.315" r="2.315" transform="translate(217.428 407.802)" fill="#fff" stroke="#fff" stroke-linejoin="bevel" stroke-width="1.5"/>
    </g>
  </g>
</svg>
