<svg id="그룹_3869" data-name="그룹 3869" xmlns="http://www.w3.org/2000/svg" xmlns:xlink="http://www.w3.org/1999/xlink" width="168.161" height="48.175" viewBox="0 0 168.161 48.175">
  <defs>
    <clipPath id="clip-path">
      <rect id="사각형_9054" data-name="사각형 9054" width="168.161" height="48.175" fill="#333"/>
    </clipPath>
  </defs>
  <g id="그룹_3861" data-name="그룹 3861" clip-path="url(#clip-path)">
    <path id="패스_3183" data-name="패스 3183" d="M2.727,197.694c-1.541,0-2.727-.842-2.727-2.206H1.352a1.237,1.237,0,0,0,1.375,1.142c.887,0,1.386-.477,1.386-1.131,0-1.862-4.091-.654-4.091-3.492,0-1.352,1.076-2.195,2.65-2.195a2.349,2.349,0,0,1,2.627,2.1H3.9a1.205,1.205,0,0,0-1.3-1.02c-.732-.022-1.3.333-1.3,1.075,0,1.74,4.079.654,4.079,3.469a2.394,2.394,0,0,1-2.66,2.261" transform="translate(0 -149.518)" fill="#333"/>
    <path id="패스_3184" data-name="패스 3184" d="M36.683,191.26H33.69v2.261h2.661v1.031H33.69v2.361h2.993v1.031H32.427v-7.715h4.257Z" transform="translate(-25.543 -149.847)" fill="#333"/>
    <path id="패스_3185" data-name="패스 3185" d="M61.737,197.693a3.941,3.941,0,1,1,3.935-3.946,3.856,3.856,0,0,1-3.935,3.946m0-1.1a2.845,2.845,0,1,0-2.638-2.849,2.609,2.609,0,0,0,2.638,2.849" transform="translate(-45.532 -149.518)" fill="#333"/>
    <path id="패스_3186" data-name="패스 3186" d="M100.671,190.282h1.264v4.911a1.746,1.746,0,1,0,3.492,0v-4.911h1.264v4.889a2.783,2.783,0,0,1-3.026,2.893,2.752,2.752,0,0,1-2.993-2.893Z" transform="translate(-79.3 -149.889)" fill="#333"/>
    <path id="패스_3187" data-name="패스 3187" d="M138.015,190.282v6.684h2.605v1.02h-3.869v-7.7Z" transform="translate(-107.722 -149.889)" fill="#333"/>
    <path id="패스_3188" data-name="패스 3188" d="M173.511,190.282h1.363l2.7,6.042,2.694-6.042h1.352v7.7h-1.264v-5.277l-2.35,5.277h-.875l-2.361-5.277v5.277h-1.264Z" transform="translate(-136.678 -149.889)" fill="#333"/>
    <path id="패스_3189" data-name="패스 3189" d="M223.822,191.26h-2.993v2.261h2.661v1.031h-2.661v2.361h2.993v1.031h-4.257v-7.715h4.257Z" transform="translate(-172.956 -149.847)" fill="#333"/>
    <path id="패스_3190" data-name="패스 3190" d="M253.532,194.162c0,2.372-1.619,3.824-4.091,3.824h-2.516v-7.7h2.516c2.472,0,4.091,1.5,4.091,3.88m-4.091,2.794a2.534,2.534,0,0,0,2.794-2.794,2.57,2.57,0,0,0-2.794-2.849h-1.252v5.642Z" transform="translate(-194.508 -149.889)" fill="#333"/>
    <rect id="사각형_9053" data-name="사각형 9053" width="1.264" height="7.704" transform="translate(60.276 40.393)" fill="#333"/>
    <path id="패스_3191" data-name="패스 3191" d="M299.681,189.812a3.673,3.673,0,0,1,3.581,2.317h-1.519a2.153,2.153,0,0,0-2.062-1.208,2.839,2.839,0,0,0,0,5.665,2.153,2.153,0,0,0,2.062-1.208h1.519a3.663,3.663,0,0,1-3.581,2.306,3.935,3.935,0,0,1,0-7.871" transform="translate(-232.965 -149.518)" fill="#333"/>
    <path id="패스_3192" data-name="패스 3192" d="M341.052,196.371h-3.226l-.554,1.574h-1.319l2.76-7.715h1.463l2.76,7.715h-1.33Zm-1.607-4.612-1.264,3.581H340.7Z" transform="translate(-264.637 -149.848)" fill="#333"/>
    <path id="패스_3193" data-name="패스 3193" d="M375.752,190.282v6.684h2.605v1.02h-3.869v-7.7Z" transform="translate(-294.991 -149.889)" fill="#333"/>
    <path id="패스_3194" data-name="패스 3194" d="M413.2,189.812a3.672,3.672,0,0,1,3.58,2.317h-1.519a2.153,2.153,0,0,0-2.062-1.208,2.839,2.839,0,0,0,0,5.665,2.152,2.152,0,0,0,2.062-1.208h1.519a3.663,3.663,0,0,1-3.58,2.306,3.935,3.935,0,1,1,0-7.871" transform="translate(-322.383 -149.518)" fill="#333"/>
    <path id="패스_3195" data-name="패스 3195" d="M451.609,190.282h4.534v1.031h-3.27v2.272h2.549v1.031h-2.549v3.37h-1.264Z" transform="translate(-355.741 -149.889)" fill="#333"/>
    <path id="패스_3196" data-name="패스 3196" d="M480.45,197.693a3.941,3.941,0,1,1,3.935-3.946,3.856,3.856,0,0,1-3.935,3.946m0-1.1a2.845,2.845,0,1,0-2.638-2.849,2.609,2.609,0,0,0,2.638,2.849" transform="translate(-375.36 -149.518)" fill="#333"/>
    <path id="패스_3197" data-name="패스 3197" d="M535.675,194.86h-1.4v3.126h-1.264v-7.7h2.661c1.829,0,2.727,1.042,2.727,2.295,0,1.1-.72,2.284-2.727,2.284m0-1.031c.987,0,1.43-.477,1.43-1.253,0-.8-.443-1.264-1.43-1.264h-1.4v2.516Z" transform="translate(-419.865 -149.889)" fill="#333"/>
    <path id="패스_3198" data-name="패스 3198" d="M565.344,190.282v6.684h2.605v1.02h-3.869v-7.7Z" transform="translate(-444.337 -149.889)" fill="#333"/>
    <path id="패스_3199" data-name="패스 3199" d="M590.222,196.371H587l-.554,1.574h-1.319l2.76-7.715h1.463l2.76,7.715h-1.33Zm-1.607-4.612-1.264,3.581h2.516Z" transform="translate(-460.912 -149.848)" fill="#333"/>
    <path id="패스_3200" data-name="패스 3200" d="M621.779,190.282h5.376v1.031H625.1v6.673h-1.264v-6.673h-2.062Z" transform="translate(-489.787 -149.889)" fill="#333"/>
    <path id="패스_3201" data-name="패스 3201" d="M653.108,190.282h4.534v1.031h-3.27v2.272h2.55v1.031h-2.55v3.37h-1.264Z" transform="translate(-514.465 -149.889)" fill="#333"/>
    <path id="패스_3202" data-name="패스 3202" d="M681.949,197.693a3.941,3.941,0,1,1,3.936-3.946,3.856,3.856,0,0,1-3.936,3.946m0-1.1a2.845,2.845,0,1,0-2.638-2.849,2.609,2.609,0,0,0,2.638,2.849" transform="translate(-534.084 -149.518)" fill="#333"/>
    <path id="패스_3203" data-name="패스 3203" d="M723.6,190.282c1.829,0,2.727,1.053,2.727,2.306a2.193,2.193,0,0,1-1.785,2.206l1.907,3.193h-1.508l-1.773-3.082H722.2v3.082h-1.264v-7.7Zm0,1.031h-1.4V193.9h1.4c.987,0,1.43-.543,1.43-1.308s-.443-1.275-1.43-1.275" transform="translate(-567.895 -149.889)" fill="#333"/>
    <path id="패스_3204" data-name="패스 3204" d="M753.935,190.282H755.3l2.7,6.042,2.694-6.042h1.352v7.7h-1.264v-5.277l-2.35,5.277h-.875l-2.361-5.277v5.277h-1.264Z" transform="translate(-593.889 -149.889)" fill="#333"/>
    <path id="패스_3205" data-name="패스 3205" d="M372.885,21.136V49.41l-1.579-.912V20.021l-.175.1V48.6l1.754,1.013,3.542,2.046,1.721-.995V20.085l-1.721-.995Z" transform="translate(-292.347 -15.038)" fill="#333"/>
    <path id="패스_3206" data-name="패스 3206" d="M376.427,0l-3.542,2.046L371.13,3.058V5.084l1.755-1.012,3.542-2.046,3.542,2.046v30.5l1.755-1.012V3.058l-1.755-1.012Z" transform="translate(-292.346 0)" fill="#333"/>
    <path id="패스_3207" data-name="패스 3207" d="M326.39,41.682l-.179-.1-1.754-1.014L322.7,39.552l-1.314.76,3.509,2.025v0l1.493.861V61.508l1.754,1.014V42.694l-.179-.1Z" transform="translate(-253.164 -31.156)" fill="#333"/>
    <path id="패스_3208" data-name="패스 3208" d="M323.012,54.45l-.179-.1-1.444-.835v16.1l1.623.937,1.754,1.012v-16.1l-.179-.1Z" transform="translate(-253.164 -42.152)" fill="#333"/>
    <path id="패스_3209" data-name="패스 3209" d="M440.7,41.682l.179-.1,1.754-1.014,1.754-1.012,1.314.76-3.509,2.025v0L440.7,43.2V61.508l-1.754,1.014V42.694l.179-.1Z" transform="translate(-345.767 -31.156)" fill="#333"/>
    <path id="패스_3210" data-name="패스 3210" d="M456.618,54.45l.179-.1,1.444-.835v16.1l-1.623.937-1.754,1.012v-16.1l.179-.1Z" transform="translate(-358.305 -42.152)" fill="#333"/>
  </g>
</svg>
