<svg xmlns="http://www.w3.org/2000/svg" width="98.693" height="125.588" viewBox="0 0 98.693 125.588">
  <g id="그룹_3760" data-name="그룹 3760" transform="translate(-395.911 -28.161)">
    <path id="패스_3152" data-name="패스 3152" d="M487.412,28.161H403.1a7.256,7.256,0,0,0-7.192,7.3V146.448a7.256,7.256,0,0,0,7.192,7.3h84.309a7.256,7.256,0,0,0,7.192-7.3V35.462A7.256,7.256,0,0,0,487.412,28.161Zm4.674,118.287a4.736,4.736,0,0,1-4.674,4.783H403.1a4.735,4.735,0,0,1-4.674-4.783V35.462a4.735,4.735,0,0,1,4.674-4.783h84.309a4.736,4.736,0,0,1,4.674,4.783Z" transform="translate(0)" fill="#333"/>
    <path id="패스_3153" data-name="패스 3153" d="M480.875,34.2H403.148a1.258,1.258,0,0,0-1.259,1.259V139.9a1.258,1.258,0,0,0,1.259,1.259h77.727a1.258,1.258,0,0,0,1.259-1.259V35.458A1.258,1.258,0,0,0,480.875,34.2Zm-1.259,104.437H404.407V36.717h75.208Z" transform="translate(3.246 3.279)" fill="#333"/>
    <path id="패스_3154" data-name="패스 3154" d="M406.315,83.338h67.953a1.26,1.26,0,0,0,1.259-1.261V38.721a1.259,1.259,0,0,0-1.259-1.259H406.315a1.259,1.259,0,0,0-1.259,1.259V82.077A1.26,1.26,0,0,0,406.315,83.338Zm1.259-43.358h65.435V80.82H407.574Z" transform="translate(4.966 5.05)" fill="#333"/>
    <path id="패스_3155" data-name="패스 3155" d="M416.926,48.428h-3.341a1.258,1.258,0,0,0-1.259,1.259V72a1.259,1.259,0,0,0,2.518,0V50.946h.822V72a1.259,1.259,0,0,0,2.518,0V49.687A1.258,1.258,0,0,0,416.926,48.428Z" transform="translate(8.913 11.005)" fill="#333"/>
    <path id="패스_3156" data-name="패스 3156" d="M421.449,42.978h-3.341a1.258,1.258,0,0,0-1.259,1.259V74.955a1.259,1.259,0,0,0,2.518,0V45.495h.822v29.46a1.259,1.259,0,0,0,2.518,0V44.237A1.258,1.258,0,0,0,421.449,42.978Z" transform="translate(11.369 8.045)" fill="#333"/>
    <path id="패스_3157" data-name="패스 3157" d="M426,53.421h-3.341A1.259,1.259,0,0,0,421.4,54.68v14.6a1.259,1.259,0,0,0,2.518,0V55.939h.822V69.284a1.259,1.259,0,0,0,2.518,0V54.68A1.259,1.259,0,0,0,426,53.421Z" transform="translate(13.843 13.716)" fill="#333"/>
    <path id="패스_3158" data-name="패스 3158" d="M430.529,44.805h-3.341a1.259,1.259,0,0,0-1.259,1.259v27.9a1.259,1.259,0,0,0,2.518,0V47.323h.822v26.64a1.259,1.259,0,0,0,2.518,0v-27.9A1.259,1.259,0,0,0,430.529,44.805Z" transform="translate(16.299 9.037)" fill="#333"/>
    <path id="패스_3159" data-name="패스 3159" d="M435.1,40.139h-3.39a1.258,1.258,0,0,0-1.259,1.258V76.5a1.259,1.259,0,0,0,2.518,0V42.656h.872V76.5a1.259,1.259,0,0,0,2.518,0V41.4A1.258,1.258,0,0,0,435.1,40.139Z" transform="translate(18.756 6.504)" fill="#333"/>
    <path id="패스_3160" data-name="패스 3160" d="M439.607,49.6h-3.339a1.258,1.258,0,0,0-1.259,1.259v20.5a1.259,1.259,0,0,0,2.518,0V52.121h.821V71.358a1.259,1.259,0,0,0,2.518,0v-20.5A1.258,1.258,0,0,0,439.607,49.6Z" transform="translate(21.23 11.643)" fill="#333"/>
    <path id="패스_3161" data-name="패스 3161" d="M444.132,44.055h-3.341a1.258,1.258,0,0,0-1.259,1.258V74.37a1.259,1.259,0,0,0,2.518,0v-27.8h.822v27.8a1.259,1.259,0,0,0,2.518,0V45.313A1.258,1.258,0,0,0,444.132,44.055Z" transform="translate(23.686 8.63)" fill="#333"/>
    <path id="패스_3162" data-name="패스 3162" d="M448.688,41.738h-3.341A1.258,1.258,0,0,0,444.088,43V75.628a1.259,1.259,0,0,0,2.518,0V44.255h.822V75.628a1.259,1.259,0,0,0,2.518,0V43A1.258,1.258,0,0,0,448.688,41.738Z" transform="translate(26.159 7.372)" fill="#333"/>
    <path id="패스_3163" data-name="패스 3163" d="M412.419,56.163h-3.39a1.258,1.258,0,0,0-1.259,1.259V67.8a1.259,1.259,0,0,0,2.518,0V58.68h.872V67.8a1.259,1.259,0,0,0,2.518,0V57.422A1.258,1.258,0,0,0,412.419,56.163Z" transform="translate(6.439 15.205)" fill="#333"/>
    <path id="패스_3164" data-name="패스 3164" d="M436.193,83.674H408.124a1.259,1.259,0,1,0,0,2.518h28.068a1.259,1.259,0,1,0,0-2.518Z" transform="translate(5.948 30.143)" fill="#333"/>
    <path id="패스_3165" data-name="패스 3165" d="M436.193,76.788H408.124a1.259,1.259,0,1,0,0,2.518h28.068a1.259,1.259,0,1,0,0-2.518Z" transform="translate(5.948 26.404)" fill="#333"/>
    <path id="패스_3166" data-name="패스 3166" d="M436.193,80.248H408.124a1.259,1.259,0,1,0,0,2.518h28.068a1.259,1.259,0,1,0,0-2.518Z" transform="translate(5.948 28.283)" fill="#333"/>
    <path id="패스_3167" data-name="패스 3167" d="M436.193,73.362H408.124a1.258,1.258,0,1,0,0,2.517h28.068a1.258,1.258,0,1,0,0-2.517Z" transform="translate(5.948 24.544)" fill="#333"/>
    <path id="패스_3168" data-name="패스 3168" d="M436.193,97.414H408.124a1.259,1.259,0,1,0,0,2.518h28.068a1.259,1.259,0,1,0,0-2.518Z" transform="translate(5.948 37.603)" fill="#333"/>
    <path id="패스_3169" data-name="패스 3169" d="M436.193,69.935H408.124a1.259,1.259,0,1,0,0,2.518h28.068a1.259,1.259,0,1,0,0-2.518Z" transform="translate(5.948 22.683)" fill="#333"/>
    <path id="패스_3170" data-name="패스 3170" d="M436.193,87.1H408.124a1.259,1.259,0,1,0,0,2.518h28.068a1.259,1.259,0,1,0,0-2.518Z" transform="translate(5.948 32.004)" fill="#333"/>
    <path id="패스_3171" data-name="패스 3171" d="M436.193,93.987H408.124a1.259,1.259,0,1,0,0,2.518h28.068a1.259,1.259,0,1,0,0-2.518Z" transform="translate(5.948 35.743)" fill="#333"/>
    <path id="패스_3172" data-name="패스 3172" d="M436.193,90.528H408.124a1.259,1.259,0,1,0,0,2.518h28.068a1.259,1.259,0,1,0,0-2.518Z" transform="translate(5.948 33.864)" fill="#333"/>
    <path id="패스_3173" data-name="패스 3173" d="M458.424,73.362H430.355a1.258,1.258,0,1,0,0,2.517h28.069a1.258,1.258,0,1,0,0-2.517Z" transform="translate(18.019 24.544)" fill="#333"/>
    <path id="패스_3174" data-name="패스 3174" d="M458.424,76.788H430.355a1.259,1.259,0,0,0,0,2.518h28.069a1.259,1.259,0,1,0,0-2.518Z" transform="translate(18.019 26.404)" fill="#333"/>
    <path id="패스_3175" data-name="패스 3175" d="M458.424,80.248H430.355a1.259,1.259,0,0,0,0,2.518h28.069a1.259,1.259,0,1,0,0-2.518Z" transform="translate(18.019 28.283)" fill="#333"/>
    <path id="패스_3176" data-name="패스 3176" d="M458.424,97.414H430.355a1.259,1.259,0,0,0,0,2.518h28.069a1.259,1.259,0,1,0,0-2.518Z" transform="translate(18.019 37.603)" fill="#333"/>
    <path id="패스_3177" data-name="패스 3177" d="M458.424,69.935H430.355a1.259,1.259,0,0,0,0,2.518h28.069a1.259,1.259,0,1,0,0-2.518Z" transform="translate(18.019 22.683)" fill="#333"/>
    <path id="패스_3178" data-name="패스 3178" d="M458.424,83.674H430.355a1.259,1.259,0,0,0,0,2.518h28.069a1.259,1.259,0,1,0,0-2.518Z" transform="translate(18.019 30.143)" fill="#333"/>
    <path id="패스_3179" data-name="패스 3179" d="M458.424,93.987H430.355a1.259,1.259,0,0,0,0,2.518h28.069a1.259,1.259,0,1,0,0-2.518Z" transform="translate(18.019 35.743)" fill="#333"/>
    <path id="패스_3180" data-name="패스 3180" d="M458.424,87.1H430.355a1.259,1.259,0,0,0,0,2.518h28.069a1.259,1.259,0,1,0,0-2.518Z" transform="translate(18.019 32.004)" fill="#333"/>
    <path id="패스_3181" data-name="패스 3181" d="M458.424,90.528H430.355a1.259,1.259,0,0,0,0,2.518h28.069a1.259,1.259,0,1,0,0-2.518Z" transform="translate(18.019 33.864)" fill="#333"/>
  </g>
</svg>
