<svg xmlns="http://www.w3.org/2000/svg" width="89.417" height="131.439" viewBox="0 0 89.417 131.439">
  <g id="그룹_3757" data-name="그룹 3757" transform="translate(-398.108 -147.378)">
    <path id="패스_3087" data-name="패스 3087" d="M486.3,160.011h-3.238V156.63a1.224,1.224,0,0,0-1.225-1.223H455.452a1.224,1.224,0,1,0,0,2.448h25.16V267.787H400.558V157.855h25.16a1.224,1.224,0,1,0,0-2.448H399.333a1.225,1.225,0,0,0-1.225,1.223V269.012a1.226,1.226,0,0,0,1.225,1.226h3.238v3.331a1.224,1.224,0,0,0,1.225,1.225h82.5a1.224,1.224,0,0,0,1.225-1.225V161.236A1.225,1.225,0,0,0,486.3,160.011Zm-1.225,112.333H405.019v-2.106h76.818a1.226,1.226,0,0,0,1.225-1.226V162.461h2.013Z" transform="translate(0 4.023)" fill="#333"/>
    <path id="패스_3088" data-name="패스 3088" d="M421.129,174.665h1.7l-.591,1.888a1.224,1.224,0,1,0,2.336.731l.821-2.619h9.81l.806,2.615a1.223,1.223,0,0,0,1.169.863,1.207,1.207,0,0,0,.36-.054,1.222,1.222,0,0,0,.809-1.531l-.582-1.893h1.743a2.543,2.543,0,0,0,2.532-2.547v-12.59a2.543,2.543,0,0,0-2.532-2.547,1.232,1.232,0,0,0-1.183,1.273,1.3,1.3,0,0,0,1.265,1.274l-.083,12.689-2.5-.014-1.851-6v-6.287a5.963,5.963,0,0,0,2.313-1.534,6.591,6.591,0,0,0,.021-9.049,6.043,6.043,0,0,0-4.433-1.954H427.58a5.927,5.927,0,0,0-4.412,1.932,6.586,6.586,0,0,0-.056,9.011,5.6,5.6,0,0,0,2.37,1.6V166.2l-1.858,5.932-2.58-.014.086-12.687a1.225,1.225,0,1,0,0-2.45,2.544,2.544,0,0,0-2.535,2.547v12.59A2.544,2.544,0,0,0,421.129,174.665Zm5.8-16.882a3.374,3.374,0,0,1-2.018-1.126,4.14,4.14,0,0,1,.044-5.671,3.464,3.464,0,0,1,2.627-1.159h5.481a3.639,3.639,0,0,1,2.671,1.205,4.144,4.144,0,0,1-.027,5.653,3.6,3.6,0,0,1-2,1.1,1.226,1.226,0,0,0-.994,1.2v7.4a1.181,1.181,0,0,0,.055.36l1.678,5.443-8.256-.045,1.689-5.394a1.2,1.2,0,0,0,.056-.365v-7.4A1.225,1.225,0,0,0,426.927,157.784Z" transform="translate(10.266)" fill="#333"/>
    <path id="패스_3089" data-name="패스 3089" d="M413.648,203.53a18.207,18.207,0,0,0,17-.314l0,0h.006a18.5,18.5,0,0,0,7.644-8.051,23.263,23.263,0,0,0,1.536-4.5c0-.006,0-.013,0-.021l.008-.02a18.748,18.748,0,0,0-9.865-20.286h0l0,0a18.065,18.065,0,0,0-13.941-.958,18.323,18.323,0,0,0-10.647,9.35A18.644,18.644,0,0,0,413.648,203.53Zm22.44-9.42a15.953,15.953,0,0,1-5.566,6.317l-4.3-7.918-2.078-3.828,12.986,2.646A20.719,20.719,0,0,1,436.088,194.11Zm1.546-5.18-14.022-2.858.347-.706,6-12.245A16.309,16.309,0,0,1,437.634,188.93Zm-30.048-9.124a15.945,15.945,0,0,1,14.285-8.948,15.59,15.59,0,0,1,5.9,1.163l-7.058,14.4c-.008.013,0,.029-.01.042a1.213,1.213,0,0,0-.108.467c0,.015,0,.029,0,.044s.01.042.012.065a1.188,1.188,0,0,0,.1.41c.008.017,0,.036.012.053l.014.017.009.027,7.642,14.076a15.756,15.756,0,0,1-13.629-.273A16.185,16.185,0,0,1,407.586,179.806Z" transform="translate(2.693 10.538)" fill="#333"/>
    <path id="패스_3090" data-name="패스 3090" d="M457.287,189.021H432.065a1.225,1.225,0,0,0,0,2.45h25.222a1.225,1.225,0,0,0,0-2.45Z" transform="translate(16.403 20.868)" fill="#333"/>
    <path id="패스_3091" data-name="패스 3091" d="M457.287,186.084H432.065a1.225,1.225,0,1,0,0,2.45h25.222a1.225,1.225,0,0,0,0-2.45Z" transform="translate(16.403 19.396)" fill="#333"/>
    <path id="패스_3092" data-name="패스 3092" d="M457.287,179.785H432.065a1.225,1.225,0,1,0,0,2.45h25.222a1.225,1.225,0,0,0,0-2.45Z" transform="translate(16.403 16.24)" fill="#333"/>
    <path id="패스_3093" data-name="패스 3093" d="M457.287,170.549H432.065a1.225,1.225,0,0,0,0,2.45h25.222a1.225,1.225,0,0,0,0-2.45Z" transform="translate(16.403 11.611)" fill="#333"/>
    <path id="패스_3094" data-name="패스 3094" d="M457.287,175.151H432.065a1.225,1.225,0,0,0,0,2.45h25.222a1.225,1.225,0,0,0,0-2.45Z" transform="translate(16.403 13.918)" fill="#333"/>
    <path id="패스_3095" data-name="패스 3095" d="M470.969,217.055H404.761a1.225,1.225,0,0,0,0,2.45h66.208a1.225,1.225,0,0,0,0-2.45Z" transform="translate(2.72 34.917)" fill="#333"/>
    <path id="패스_3096" data-name="패스 3096" d="M470.969,212.421H404.761a1.225,1.225,0,1,0,0,2.45h66.208a1.225,1.225,0,0,0,0-2.45Z" transform="translate(2.72 32.594)" fill="#333"/>
    <path id="패스_3097" data-name="패스 3097" d="M470.969,207.819H404.761a1.225,1.225,0,1,0,0,2.45h66.208a1.225,1.225,0,0,0,0-2.45Z" transform="translate(2.72 30.288)" fill="#333"/>
    <path id="패스_3098" data-name="패스 3098" d="M470.969,198.583H404.761a1.225,1.225,0,0,0,0,2.45h66.208a1.225,1.225,0,0,0,0-2.45Z" transform="translate(2.72 25.66)" fill="#333"/>
    <path id="패스_3099" data-name="패스 3099" d="M470.969,203.184H404.761a1.225,1.225,0,1,0,0,2.45h66.208a1.225,1.225,0,0,0,0-2.45Z" transform="translate(2.72 27.965)" fill="#333"/>
  </g>
</svg>
