<svg id="그룹_4226" data-name="그룹 4226" xmlns="http://www.w3.org/2000/svg" xmlns:xlink="http://www.w3.org/1999/xlink" width="210" height="60.161" viewBox="0 0 210 60.161">
  <defs>
    <clipPath id="clip-path">
      <rect id="사각형_9054" data-name="사각형 9054" width="210" height="60.161" fill="#fff"/>
    </clipPath>
  </defs>
  <g id="그룹_3861" data-name="그룹 3861" clip-path="url(#clip-path)">
    <path id="패스_3183" data-name="패스 3183" d="M3.406,199.655C1.481,199.655,0,198.6,0,196.9H1.689a1.544,1.544,0,0,0,1.717,1.426c1.107,0,1.73-.6,1.73-1.412,0-2.326-5.108-.816-5.108-4.361,0-1.689,1.343-2.741,3.309-2.741,1.841,0,3.142.969,3.281,2.616H4.873a1.505,1.505,0,0,0-1.619-1.274c-.914-.028-1.62.415-1.62,1.343,0,2.173,5.094.816,5.094,4.333,0,1.44-1.177,2.824-3.322,2.824" transform="translate(0 -139.493)" fill="#fff"/>
    <path id="패스_3184" data-name="패스 3184" d="M37.743,191.517H34v2.824h3.322v1.288H34v2.949h3.738v1.287H32.427v-9.635h5.316Z" transform="translate(-23.831 -139.8)" fill="#fff"/>
    <path id="패스_3185" data-name="패스 3185" d="M62.716,199.654a4.921,4.921,0,1,1,4.915-4.928,4.816,4.816,0,0,1-4.915,4.928m0-1.371a3.553,3.553,0,1,0-3.295-3.558,3.259,3.259,0,0,0,3.295,3.558" transform="translate(-42.479 -139.493)" fill="#fff"/>
    <path id="패스_3186" data-name="패스 3186" d="M100.671,190.282h1.578v6.132a2.181,2.181,0,1,0,4.361,0v-6.132h1.578v6.1A3.475,3.475,0,0,1,104.409,200a3.436,3.436,0,0,1-3.738-3.613Z" transform="translate(-73.983 -139.839)" fill="#fff"/>
    <path id="패스_3187" data-name="패스 3187" d="M138.33,190.282v8.347h3.253V199.9h-4.831v-9.621Z" transform="translate(-100.499 -139.839)" fill="#fff"/>
    <path id="패스_3188" data-name="패스 3188" d="M173.511,190.282h1.7l3.378,7.545,3.364-7.545h1.689V199.9h-1.578v-6.59l-2.935,6.59h-1.093l-2.949-6.59v6.59h-1.578Z" transform="translate(-127.513 -139.839)" fill="#fff"/>
    <path id="패스_3189" data-name="패스 3189" d="M224.881,191.517h-3.738v2.824h3.322v1.288h-3.322v2.949h3.738v1.287h-5.316v-9.635h5.316Z" transform="translate(-161.359 -139.8)" fill="#fff"/>
    <path id="패스_3190" data-name="패스 3190" d="M255.176,195.127c0,2.962-2.021,4.776-5.108,4.776h-3.142v-9.621h3.142c3.087,0,5.108,1.869,5.108,4.845m-5.108,3.489a3.165,3.165,0,0,0,3.489-3.489,3.21,3.21,0,0,0-3.489-3.558H248.5v7.046Z" transform="translate(-181.466 -139.839)" fill="#fff"/>
    <rect id="사각형_9053" data-name="사각형 9053" width="1.578" height="9.621" transform="translate(75.273 50.443)" fill="#fff"/>
    <path id="패스_3191" data-name="패스 3191" d="M300.66,189.812a4.586,4.586,0,0,1,4.471,2.893h-1.9a2.689,2.689,0,0,0-2.575-1.509,3.546,3.546,0,0,0,0,7.074,2.688,2.688,0,0,0,2.575-1.509h1.9a4.575,4.575,0,0,1-4.471,2.879,4.914,4.914,0,0,1,0-9.829" transform="translate(-217.344 -139.493)" fill="#fff"/>
    <path id="패스_3192" data-name="패스 3192" d="M342.321,197.9h-4.028l-.692,1.966h-1.647l3.447-9.635h1.827l3.447,9.635h-1.661Zm-2.007-5.759-1.578,4.471h3.142Z" transform="translate(-246.893 -139.8)" fill="#fff"/>
    <path id="패스_3193" data-name="패스 3193" d="M376.066,190.282v8.347h3.253V199.9h-4.831v-9.621Z" transform="translate(-275.212 -139.839)" fill="#fff"/>
    <path id="패스_3194" data-name="패스 3194" d="M414.177,189.812a4.586,4.586,0,0,1,4.471,2.893h-1.9a2.688,2.688,0,0,0-2.575-1.509,3.546,3.546,0,0,0,0,7.074,2.688,2.688,0,0,0,2.575-1.509h1.9a4.575,4.575,0,0,1-4.471,2.879,4.914,4.914,0,1,1,0-9.829" transform="translate(-300.768 -139.493)" fill="#fff"/>
    <path id="패스_3195" data-name="패스 3195" d="M451.609,190.282h5.662v1.287h-4.084v2.838h3.184v1.288h-3.184V199.9h-1.578Z" transform="translate(-331.888 -139.839)" fill="#fff"/>
    <path id="패스_3196" data-name="패스 3196" d="M481.429,199.654a4.921,4.921,0,1,1,4.915-4.928,4.816,4.816,0,0,1-4.915,4.928m0-1.371a3.553,3.553,0,1,0-3.295-3.558,3.259,3.259,0,0,0,3.295,3.558" transform="translate(-350.192 -139.493)" fill="#fff"/>
    <path id="패스_3197" data-name="패스 3197" d="M536.337,196h-1.744v3.9h-1.578v-9.621h3.323c2.284,0,3.405,1.3,3.405,2.865,0,1.371-.9,2.852-3.405,2.852m0-1.287c1.232,0,1.786-.6,1.786-1.564,0-1-.554-1.578-1.786-1.578h-1.744v3.142Z" transform="translate(-391.713 -139.839)" fill="#fff"/>
    <path id="패스_3198" data-name="패스 3198" d="M565.659,190.282v8.347h3.254V199.9h-4.832v-9.621Z" transform="translate(-414.544 -139.839)" fill="#fff"/>
    <path id="패스_3199" data-name="패스 3199" d="M591.491,197.9h-4.028l-.692,1.966h-1.647l3.447-9.635H590.4l3.447,9.635h-1.661Zm-2.007-5.759-1.578,4.471h3.142Z" transform="translate(-430.008 -139.8)" fill="#fff"/>
    <path id="패스_3200" data-name="패스 3200" d="M621.779,190.282h6.714v1.287h-2.561V199.9h-1.578v-8.334h-2.575Z" transform="translate(-456.947 -139.839)" fill="#fff"/>
    <path id="패스_3201" data-name="패스 3201" d="M653.108,190.282h5.662v1.287h-4.084v2.838h3.184v1.288h-3.184V199.9h-1.578Z" transform="translate(-479.97 -139.839)" fill="#fff"/>
    <path id="패스_3202" data-name="패스 3202" d="M682.928,199.654a4.921,4.921,0,1,1,4.915-4.928,4.816,4.816,0,0,1-4.915,4.928m0-1.371a3.553,3.553,0,1,0-3.295-3.558,3.259,3.259,0,0,0,3.295,3.558" transform="translate(-498.274 -139.493)" fill="#fff"/>
    <path id="패스_3203" data-name="패스 3203" d="M724.258,190.282c2.284,0,3.405,1.315,3.405,2.879a2.738,2.738,0,0,1-2.229,2.755l2.381,3.987h-1.883l-2.215-3.848h-1.2V199.9h-1.578v-9.621Zm0,1.287h-1.744v3.225h1.744c1.232,0,1.786-.678,1.786-1.634s-.554-1.592-1.786-1.592" transform="translate(-529.817 -139.839)" fill="#fff"/>
    <path id="패스_3204" data-name="패스 3204" d="M753.935,190.282h1.7l3.378,7.545,3.364-7.545h1.689V199.9h-1.578v-6.59l-2.935,6.59h-1.093l-2.949-6.59v6.59h-1.578Z" transform="translate(-554.069 -139.839)" fill="#fff"/>
    <path id="패스_3205" data-name="패스 3205" d="M373.322,21.645V56.953l-1.972-1.138V20.252l-.219.126V55.941l2.191,1.265,4.423,2.554,2.149-1.242V20.333l-2.149-1.242Z" transform="translate(-272.745 -14.03)" fill="#fff"/>
    <path id="패스_3206" data-name="패스 3206" d="M377.744,0l-4.423,2.554L371.13,3.819V6.349l2.191-1.264,4.423-2.554,4.423,2.554V43.177l2.191-1.264V3.819l-2.191-1.264Z" transform="translate(-272.744 0)" fill="#fff"/>
    <path id="패스_3207" data-name="패스 3207" d="M327.635,42.212l-.224-.129-2.191-1.266-2.191-1.264-1.641.949,4.382,2.528v0l1.864,1.076V66.97l2.191,1.266V43.476l-.224-.129Z" transform="translate(-236.189 -29.067)" fill="#fff"/>
    <path id="패스_3208" data-name="패스 3208" d="M323.415,54.683l-.223-.129-1.8-1.043V73.623l2.026,1.17,2.191,1.264V55.947l-.223-.129Z" transform="translate(-236.19 -39.325)" fill="#fff"/>
    <path id="패스_3209" data-name="패스 3209" d="M441.137,42.212l.224-.129,2.191-1.266,2.191-1.264,1.641.949L443,43.029v0l-1.864,1.076V66.97l-2.191,1.266V43.476l.224-.129Z" transform="translate(-322.583 -29.067)" fill="#fff"/>
    <path id="패스_3210" data-name="패스 3210" d="M457.054,54.683l.224-.129,1.8-1.043V73.623l-2.026,1.17-2.191,1.264V55.947l.224-.129Z" transform="translate(-334.28 -39.325)" fill="#fff"/>
  </g>
</svg>
