<svg xmlns="http://www.w3.org/2000/svg" width="28.784" height="32.808" viewBox="0 0 28.784 32.808">
  <g id="그룹_3753" data-name="그룹 3753" transform="translate(-429.866 -628.07)">
    <path id="패스_3082" data-name="패스 3082" d="M444.258,630.888c-7.535,0-13.642,4.541-13.642,10.142h8.8C439.413,635.429,441.582,630.888,444.258,630.888Z" fill="none" stroke="#fff" stroke-linejoin="bevel" stroke-width="1.5"/>
    <path id="패스_3083" data-name="패스 3083" d="M449.1,641.03h8.8c0-5.6-6.108-10.142-13.642-10.142C446.933,630.888,449.1,635.429,449.1,641.03Z" fill="none" stroke="#fff" stroke-linejoin="bevel" stroke-width="1.5"/>
    <path id="패스_3084" data-name="패스 3084" d="M439.413,641.03h9.69c0-5.6-2.17-10.142-4.845-10.142S439.413,635.429,439.413,641.03Z" fill="none" stroke="#fff" stroke-linejoin="bevel" stroke-width="1.5"/>
    <path id="패스_3085" data-name="패스 3085" d="M447.853,645.586H442.46a1.8,1.8,0,0,0-1.8,1.8h0a1.8,1.8,0,0,0,1.8,1.8h3.6a1.8,1.8,0,0,1,1.8,1.8h0a1.8,1.8,0,0,1-1.8,1.8h-5.394" fill="none" stroke="#fff" stroke-linejoin="bevel" stroke-width="1.5"/>
    <line id="선_117" data-name="선 117" y2="11.986" transform="translate(444.258 643.189)" fill="#fff" stroke="#fff" stroke-linejoin="bevel" stroke-width="1.5"/>
    <line id="선_118" data-name="선 118" y2="4.01" transform="translate(444.258 656.868)" fill="#fff" stroke="#fff" stroke-linejoin="bevel" stroke-width="1.5"/>
    <line id="선_119" data-name="선 119" y2="2.819" transform="translate(444.258 628.07)" fill="#fff" stroke="#fff" stroke-linejoin="bevel" stroke-width="1.5"/>
  </g>
</svg>
