<svg xmlns="http://www.w3.org/2000/svg" width="109.797" height="116.118" viewBox="0 0 109.797 116.118">
  <g id="그룹_3759" data-name="그룹 3759" transform="translate(-150.343 -392.75)">
    <path id="패스_3125" data-name="패스 3125" d="M177.377,394.557H153.047a2.75,2.75,0,0,0-2.7,2.723V505.313a2.747,2.747,0,0,0,2.7,2.72h24.331a2.717,2.717,0,0,0,2.707-2.72V397.28A2.718,2.718,0,0,0,177.377,394.557Zm.32,110.756a.335.335,0,0,1-.32.333H153.047a.375.375,0,0,1-.317-.333V397.28a.375.375,0,0,1,.317-.336h24.331a.338.338,0,0,1,.32.336Z" transform="translate(0 0.835)" fill="#333"/>
    <path id="패스_3126" data-name="패스 3126" d="M171.268,397.821h-14.93a2.906,2.906,0,0,0-2.894,2.911v36.887a2.906,2.906,0,0,0,2.894,2.911h14.93a2.906,2.906,0,0,0,2.894-2.911V400.732A2.906,2.906,0,0,0,171.268,397.821Zm.509,39.8a.511.511,0,0,1-.509.525h-14.93a.51.51,0,0,1-.507-.525V400.732a.51.51,0,0,1,.507-.525h14.93a.511.511,0,0,1,.509.525Z" transform="translate(1.433 2.344)" fill="#333"/>
    <path id="패스_3127" data-name="패스 3127" d="M163.743,451.246a10.236,10.236,0,1,0,10.123,10.212A10.2,10.2,0,0,0,163.743,451.246Zm0,18.084a7.85,7.85,0,1,1,7.736-7.872A7.838,7.838,0,0,1,163.743,469.33Z" transform="translate(1.493 27.036)" fill="#333"/>
    <path id="패스_3128" data-name="패스 3128" d="M198.657,394.557H174.373a2.717,2.717,0,0,0-2.705,2.723V505.313a2.716,2.716,0,0,0,2.705,2.72h24.284a2.716,2.716,0,0,0,2.705-2.72V397.28A2.717,2.717,0,0,0,198.657,394.557Zm.319,110.756a.339.339,0,0,1-.319.333H174.373a.339.339,0,0,1-.319-.333V397.28a.342.342,0,0,1,.319-.336h24.284a.342.342,0,0,1,.319.336Z" transform="translate(9.856 0.835)" fill="#333"/>
    <path id="패스_3129" data-name="패스 3129" d="M192.561,397.821H177.632a2.906,2.906,0,0,0-2.894,2.911v36.887a2.906,2.906,0,0,0,2.894,2.911h14.929a2.906,2.906,0,0,0,2.894-2.911V400.732A2.906,2.906,0,0,0,192.561,397.821Zm.507,39.8a.51.51,0,0,1-.507.525H177.632a.51.51,0,0,1-.507-.525V400.732a.51.51,0,0,1,.507-.525h14.929a.51.51,0,0,1,.507.525Z" transform="translate(11.275 2.344)" fill="#333"/>
    <path id="패스_3130" data-name="패스 3130" d="M185.022,451.246a10.236,10.236,0,1,0,10.123,10.212A10.179,10.179,0,0,0,185.022,451.246Zm0,18.084a7.85,7.85,0,1,1,7.736-7.872A7.814,7.814,0,0,1,185.022,469.33Z" transform="translate(11.35 27.036)" fill="#333"/>
    <path id="패스_3131" data-name="패스 3131" d="M240.691,501.26,221.606,395a2.723,2.723,0,0,0-3.138-2.209l-23.9,4.39a2.664,2.664,0,0,0-1.736,1.1,2.759,2.759,0,0,0-.459,2.057l19.085,106.251a2.659,2.659,0,0,0,2.647,2.262,2.993,2.993,0,0,0,.494-.041l23.891-4.387a2.668,2.668,0,0,0,1.746-1.1A2.75,2.75,0,0,0,240.691,501.26Zm-2.405.681a.3.3,0,0,1-.211.123l-23.891,4.387a.332.332,0,0,1-.256-.044.328.328,0,0,1-.12-.231L194.723,399.913a.352.352,0,0,1,.059-.265.287.287,0,0,1,.193-.12l.016,0,23.891-4.387a.448.448,0,0,1,.061-.006.327.327,0,0,1,.316.281l19.083,106.265A.354.354,0,0,1,238.286,501.942Z" transform="translate(19.407 0)" fill="#333"/>
    <path id="패스_3132" data-name="패스 3132" d="M213.013,396.572,198.33,399.29a2.933,2.933,0,0,0-2.34,3.344l6.526,36.344a2.957,2.957,0,0,0,2.905,2.35,3.33,3.33,0,0,0,.464-.034l14.664-2.717a2.929,2.929,0,0,0,2.357-3.346l-6.524-36.346A2.971,2.971,0,0,0,213.013,396.572Zm7.134,39.653-14.657,2.715a.554.554,0,0,1-.632-.417l-6.516-36.286a.528.528,0,0,1,.38-.594l.028,0,14.657-2.714a.59.59,0,0,1,.088-.007.549.549,0,0,1,.544.423l6.514,36.286A.529.529,0,0,1,220.147,436.225Z" transform="translate(21.081 1.752)" fill="#333"/>
    <path id="패스_3133" data-name="패스 3133" d="M169.611,421.254H156.382a1.192,1.192,0,1,0,0,2.385h13.228a1.192,1.192,0,1,0,0-2.385Z" transform="translate(2.24 13.174)" fill="#333"/>
    <path id="패스_3134" data-name="패스 3134" d="M169.611,417.141H156.382a1.193,1.193,0,1,0,0,2.386h13.228a1.193,1.193,0,1,0,0-2.386Z" transform="translate(2.24 11.273)" fill="#333"/>
    <path id="패스_3135" data-name="패스 3135" d="M169.611,413H156.382a1.193,1.193,0,1,0,0,2.386h13.228a1.193,1.193,0,1,0,0-2.386Z" transform="translate(2.24 9.358)" fill="#333"/>
    <path id="패스_3136" data-name="패스 3136" d="M169.611,408.885H156.382a1.193,1.193,0,1,0,0,2.386h13.228a1.193,1.193,0,1,0,0-2.386Z" transform="translate(2.24 7.457)" fill="#333"/>
    <path id="패스_3137" data-name="패스 3137" d="M169.611,400.628H156.382a1.193,1.193,0,1,0,0,2.386h13.228a1.193,1.193,0,1,0,0-2.386Z" transform="translate(2.24 3.641)" fill="#333"/>
    <path id="패스_3138" data-name="패스 3138" d="M169.611,404.74H156.382a1.192,1.192,0,1,0,0,2.385h13.228a1.192,1.192,0,1,0,0-2.385Z" transform="translate(2.24 5.542)" fill="#333"/>
    <path id="패스_3139" data-name="패스 3139" d="M190.905,421.254h-13.23a1.192,1.192,0,1,0,0,2.385h13.23a1.192,1.192,0,1,0,0-2.385Z" transform="translate(12.081 13.174)" fill="#333"/>
    <path id="패스_3140" data-name="패스 3140" d="M190.905,417.141h-13.23a1.193,1.193,0,1,0,0,2.386h13.23a1.193,1.193,0,1,0,0-2.386Z" transform="translate(12.081 11.273)" fill="#333"/>
    <path id="패스_3141" data-name="패스 3141" d="M190.905,413h-13.23a1.193,1.193,0,1,0,0,2.386h13.23a1.193,1.193,0,1,0,0-2.386Z" transform="translate(12.081 9.358)" fill="#333"/>
    <path id="패스_3142" data-name="패스 3142" d="M190.905,408.885h-13.23a1.193,1.193,0,1,0,0,2.386h13.23a1.193,1.193,0,1,0,0-2.386Z" transform="translate(12.081 7.457)" fill="#333"/>
    <path id="패스_3143" data-name="패스 3143" d="M190.905,400.628h-13.23a1.193,1.193,0,1,0,0,2.386h13.23a1.193,1.193,0,1,0,0-2.386Z" transform="translate(12.081 3.641)" fill="#333"/>
    <path id="패스_3144" data-name="패스 3144" d="M190.905,404.74h-13.23a1.192,1.192,0,1,0,0,2.385h13.23a1.192,1.192,0,1,0,0-2.385Z" transform="translate(12.081 5.542)" fill="#333"/>
    <path id="패스_3145" data-name="패스 3145" d="M202.6,422.125a1.193,1.193,0,0,0,.214,2.366,1.212,1.212,0,0,0,.216-.019l13.038-2.386a1.193,1.193,0,1,0-.43-2.347Z" transform="translate(23.7 12.465)" fill="#333"/>
    <path id="패스_3146" data-name="패스 3146" d="M201.851,418.079a1.193,1.193,0,0,0,.218,2.366,1.137,1.137,0,0,0,.221-.021c4.343-.811,8.684-1.622,13.028-2.383a1.194,1.194,0,1,0-.414-2.351C210.553,416.456,206.2,417.266,201.851,418.079Z" transform="translate(23.357 10.595)" fill="#333"/>
    <path id="패스_3147" data-name="패스 3147" d="M207.667,412.806c-2.176.393-4.35.787-6.524,1.193a1.193,1.193,0,0,0,.216,2.366,1.238,1.238,0,0,0,.219-.019q3.257-.608,6.514-1.193c2.176-.395,4.351-.788,6.526-1.193a1.194,1.194,0,0,0-.437-2.347C212.01,412.018,209.838,412.411,207.667,412.806Z" transform="translate(23.028 8.71)" fill="#333"/>
    <path id="패스_3148" data-name="패스 3148" d="M200.4,409.953a1.193,1.193,0,0,0,.218,2.366,1.171,1.171,0,0,0,.222-.022c4.343-.81,8.682-1.62,13.027-2.382a1.194,1.194,0,1,0-.412-2.351C209.1,408.33,204.749,409.14,200.4,409.953Z" transform="translate(22.685 6.839)" fill="#333"/>
    <path id="패스_3149" data-name="패스 3149" d="M211.987,399.44l-13.038,2.386a1.193,1.193,0,0,0,.212,2.367,1.244,1.244,0,0,0,.218-.02l13.038-2.386a1.193,1.193,0,1,0-.43-2.347Z" transform="translate(22.013 3.083)" fill="#333"/>
    <path id="패스_3150" data-name="패스 3150" d="M205.777,404.757c-2.027.37-4.059.737-6.09,1.119a1.192,1.192,0,0,0,.218,2.364,1.141,1.141,0,0,0,.221-.02q3.04-.568,6.078-1.114c2.315-.421,4.622-.839,6.916-1.272a1.193,1.193,0,1,0-.443-2.344Q209.244,404.136,205.777,404.757Z" transform="translate(22.356 4.953)" fill="#333"/>
    <path id="패스_3151" data-name="패스 3151" d="M214.685,450.1a10.148,10.148,0,1,0,7.5,1.6A9.95,9.95,0,0,0,214.685,450.1Zm9.437,8.681a7.763,7.763,0,1,1-9-6.334,7.566,7.566,0,0,1,5.71,1.219A7.886,7.886,0,0,1,224.122,458.785Z" transform="translate(25.879 26.43)" fill="#333"/>
  </g>
</svg>
