<svg xmlns="http://www.w3.org/2000/svg" width="129.546" height="114.111" viewBox="0 0 129.546 114.111">
  <g id="그룹_3758" data-name="그룹 3758" transform="translate(-386.897 -396.353)">
    <path id="패스_3100" data-name="패스 3100" d="M512.856,396.353H390.482a3.577,3.577,0,0,0-3.585,3.558v88.638a3.577,3.577,0,0,0,3.585,3.558h14.6a1.289,1.289,0,0,0,0-2.579h-14.6a1,1,0,0,1-1.006-.98V412.182H513.864v76.367a1.033,1.033,0,0,1-1.008.98h-85a1.289,1.289,0,1,0,0,2.579h85a3.621,3.621,0,0,0,3.587-3.558V399.911A3.621,3.621,0,0,0,512.856,396.353ZM389.476,409.6v-9.693a1,1,0,0,1,1.006-.98H512.856a1.033,1.033,0,0,1,1.008.98V409.6Z" transform="translate(0 0)" fill="#333"/>
    <path id="패스_3101" data-name="패스 3101" d="M438.852,400.53H405.311a1.289,1.289,0,1,0,0,2.579h33.541a1.289,1.289,0,1,0,0-2.579Z" transform="translate(9.933 2.423)" fill="#333"/>
    <path id="패스_3102" data-name="패스 3102" d="M404.812,400.53H392.968a1.289,1.289,0,1,0,0,2.579h11.844a1.289,1.289,0,1,0,0-2.579Z" transform="translate(2.774 2.423)" fill="#333"/>
    <path id="패스_3103" data-name="패스 3103" d="M464.35,398.865a3.946,3.946,0,1,0,3.892,3.92A3.938,3.938,0,0,0,464.35,398.865Zm0,5.312a1.367,1.367,0,0,1,0-2.733,1.368,1.368,0,0,1,0,2.733Z" transform="translate(42.637 1.457)" fill="#333"/>
    <path id="패스_3104" data-name="패스 3104" d="M452.425,398.865a3.945,3.945,0,1,0,3.944,3.92A3.984,3.984,0,0,0,452.425,398.865Zm0,5.312a1.367,1.367,0,0,1,0-2.733,1.367,1.367,0,0,1,0,2.733Z" transform="translate(35.721 1.457)" fill="#333"/>
    <path id="패스_3105" data-name="패스 3105" d="M458.372,398.865a3.945,3.945,0,0,0,0,7.891,3.945,3.945,0,0,0,0-7.891Zm0,5.312a1.367,1.367,0,0,1,0-2.733,1.367,1.367,0,0,1,0,2.733Z" transform="translate(39.169 1.457)" fill="#333"/>
    <path id="패스_3106" data-name="패스 3106" d="M446.64,435.531a1.29,1.29,0,0,0,1.289,1.289h23.179a1.289,1.289,0,0,0,0-2.579H447.929A1.29,1.29,0,0,0,446.64,435.531Z" transform="translate(34.652 21.976)" fill="#333"/>
    <path id="패스_3107" data-name="패스 3107" d="M392.842,435.531a1.289,1.289,0,0,0,1.289,1.289H418.84a1.289,1.289,0,1,0,0-2.579H394.131A1.289,1.289,0,0,0,392.842,435.531Z" transform="translate(3.448 21.976)" fill="#333"/>
    <path id="패스_3108" data-name="패스 3108" d="M394.131,451.833h16.132a1.289,1.289,0,0,0,0-2.579H394.131a1.289,1.289,0,1,0,0,2.579Z" transform="translate(3.448 30.684)" fill="#333"/>
    <path id="패스_3109" data-name="패스 3109" d="M471.5,438h-24.25a1.289,1.289,0,1,0,0,2.577H471.5a1.289,1.289,0,1,0,0-2.577Z" transform="translate(34.259 24.154)" fill="#333"/>
    <path id="패스_3110" data-name="패스 3110" d="M476.955,449.254H437.848a1.289,1.289,0,0,0,0,2.579h39.107a1.289,1.289,0,0,0,0-2.579Z" transform="translate(28.805 30.684)" fill="#333"/>
    <path id="패스_3111" data-name="패스 3111" d="M472.476,441.748H445.57a1.289,1.289,0,0,0,0,2.579h26.906a1.289,1.289,0,0,0,0-2.579Z" transform="translate(33.284 26.33)" fill="#333"/>
    <path id="패스_3112" data-name="패스 3112" d="M394.131,448.079h20.983a1.288,1.288,0,1,0,0-2.577H394.131a1.288,1.288,0,1,0,0,2.577Z" transform="translate(3.448 28.507)" fill="#333"/>
    <path id="패스_3113" data-name="패스 3113" d="M394.131,444.327h26.9a1.289,1.289,0,0,0,0-2.579h-26.9a1.289,1.289,0,0,0,0,2.579Z" transform="translate(3.448 26.33)" fill="#333"/>
    <path id="패스_3114" data-name="패스 3114" d="M394.131,440.573h25.832a1.289,1.289,0,1,0,0-2.577H394.131a1.289,1.289,0,1,0,0,2.577Z" transform="translate(3.448 24.154)" fill="#333"/>
    <path id="패스_3115" data-name="패스 3115" d="M474.237,445.5h-31.7a1.288,1.288,0,1,0,0,2.577h31.7a1.288,1.288,0,1,0,0-2.577Z" transform="translate(31.523 28.507)" fill="#333"/>
    <path id="패스_3116" data-name="패스 3116" d="M402.487,440.961a1.289,1.289,0,0,0,1.289-1.289V419.148a1.29,1.29,0,0,0-1.289-1.289h-5.157a1.29,1.29,0,0,0-1.289,1.289v20.523a1.289,1.289,0,0,0,1.289,1.289Zm-3.868-20.523H401.2v17.944h-2.579Z" transform="translate(5.303 12.474)" fill="#333"/>
    <path id="패스_3117" data-name="패스 3117" d="M408.431,445.825a1.289,1.289,0,0,0,1.289-1.289V410.761a1.289,1.289,0,0,0-1.289-1.289h-5.156a1.289,1.289,0,0,0-1.289,1.289v33.775a1.289,1.289,0,0,0,1.289,1.289Zm-3.866-33.775h2.577v31.2h-2.577Z" transform="translate(8.752 7.609)" fill="#333"/>
    <path id="패스_3118" data-name="패스 3118" d="M444.037,428.72a1.289,1.289,0,0,0,1.289-1.289v-15a1.289,1.289,0,0,0-1.289-1.289h-5.154a1.289,1.289,0,0,0-1.289,1.289v9.332a1.289,1.289,0,0,0,2.579,0v-8.042h2.575V427.43A1.289,1.289,0,0,0,444.037,428.72Z" transform="translate(29.405 8.575)" fill="#333"/>
    <path id="패스_3119" data-name="패스 3119" d="M426.235,419.458a1.289,1.289,0,0,0,1.289-1.289v-5.775a1.289,1.289,0,0,0-1.289-1.289h-5.156a1.289,1.289,0,0,0-1.289,1.289v7.684a1.289,1.289,0,1,0,2.579,0v-6.394h2.577v4.486A1.29,1.29,0,0,0,426.235,419.458Z" transform="translate(19.079 8.556)" fill="#333"/>
    <path id="패스_3120" data-name="패스 3120" d="M414.346,431.375a1.288,1.288,0,0,0,1.288-1.289V417.659a1.288,1.288,0,0,0-1.288-1.289h-5.157a1.289,1.289,0,0,0-1.289,1.289v23.564a1.289,1.289,0,0,0,1.289,1.289h2.792a28.034,28.034,0,0,0,7.982,22,27.309,27.309,0,0,0,19.5,8.156h.035a27.423,27.423,0,0,0,19.57-8.159,28.1,28.1,0,0,0,7.941-21.994h3.6a1.289,1.289,0,0,0,1.289-1.289V416.472a1.29,1.29,0,0,0-1.289-1.289H465.45a1.29,1.29,0,0,0-1.289,1.289v14.645a1.289,1.289,0,1,0,2.579,0V417.762h2.575v22.172h-2.631A27.9,27.9,0,0,0,459.066,425l0,0a27.432,27.432,0,0,0-19.567-8.155h-.035a27.31,27.31,0,0,0-19.5,8.156,27.854,27.854,0,0,0-7.655,14.933h-1.83V418.948h2.579v11.138A1.289,1.289,0,0,0,414.346,431.375Zm7.45-4.558a24.743,24.743,0,0,1,17.668-7.393h.033a24.866,24.866,0,0,1,17.736,7.391,25.672,25.672,0,0,1,0,35.878,24.861,24.861,0,0,1-17.737,7.394h-.033a24.736,24.736,0,0,1-17.668-7.393A25.579,25.579,0,0,1,421.8,426.817Z" transform="translate(12.182 10.922)" fill="#333"/>
    <path id="패스_3121" data-name="패스 3121" d="M455.9,445.977a1.289,1.289,0,0,0,1.289-1.289V410.5a1.289,1.289,0,0,0-1.289-1.289H450.74a1.289,1.289,0,0,0-1.289,1.289v34.187a1.289,1.289,0,0,0,1.289,1.289ZM452.03,411.79h2.579V443.4H452.03Z" transform="translate(36.283 7.458)" fill="#333"/>
    <path id="패스_3122" data-name="패스 3122" d="M461.842,443.876a1.289,1.289,0,0,0,1.289-1.289V414.122a1.29,1.29,0,0,0-1.289-1.289h-5.157a1.289,1.289,0,0,0-1.288,1.289v28.464a1.288,1.288,0,0,0,1.288,1.289Zm-3.868-28.464h2.579V441.3h-2.579Z" transform="translate(39.731 9.559)" fill="#333"/>
    <path id="패스_3123" data-name="패스 3123" d="M429.961,450.063l-4.392-4.434a2.845,2.845,0,0,0-2.038-.845h0a2.844,2.844,0,0,0-2.037.845L395.3,472.082a6.071,6.071,0,0,0,0,8.518,5.943,5.943,0,0,0,8.469,0l26.19-26.454A2.912,2.912,0,0,0,429.961,450.063Zm-1.833,2.269-26.19,26.453a3.439,3.439,0,0,1-4.8,0,3.482,3.482,0,0,1,0-4.887l26.19-26.454a.254.254,0,0,1,.414,0l4.389,4.432A.339.339,0,0,1,428.128,452.332Z" transform="translate(3.863 28.091)" fill="#333"/>
    <path id="패스_3124" data-name="패스 3124" d="M419.836,459.526a23.561,23.561,0,0,0,33.43,0,24.047,24.047,0,0,0,0-33.732,23.471,23.471,0,0,0-33.435,0A24.142,24.142,0,0,0,419.836,459.526Zm1.83-31.918a20.89,20.89,0,0,1,29.768,0,21.456,21.456,0,0,1,0,30.1,20.986,20.986,0,0,1-29.769.006A21.551,21.551,0,0,1,421.666,427.608Z" transform="translate(15.12 13.019)" fill="#333"/>
  </g>
</svg>
